<svg xmlns="http://www.w3.org/2000/svg" viewBox="0 0 512 512">
  <defs>
    <linearGradient id="bg" x1="0" y1="0" x2="1" y2="1"><stop stop-color="#123d63"/><stop offset="1" stop-color="#071827"/></linearGradient>
    <linearGradient id="sun" x1="0" y1="0" x2="0" y2="1"><stop stop-color="#ffd17a"/><stop offset="1" stop-color="#ef9f42"/></linearGradient>
  </defs>
  <rect width="512" height="512" rx="112" fill="url(#bg)"/>
  <circle cx="386" cy="126" r="55" fill="url(#sun)"/>
  <path d="M56 384h400v46H56z" fill="#1d6c71"/>
  <path d="M94 375V228h95v147M204 375V164h119v211M338 375V250h80v125" fill="#f4eee3"/>
  <path d="M123 258h35v38h-35zm0 62h35v38h-35zm113-116h55v42h-55zm0 66h55v42h-55zm0 66h55v39h-55zm128-54h28v36h-28zm0 56h28v37h-28z" fill="#52a6a9"/>
  <path d="M76 401c84-44 276-44 360 0" fill="none" stroke="#ffd17a" stroke-width="18" stroke-linecap="round"/>
  <circle cx="256" cy="392" r="44" fill="#ef9f42" stroke="#fdf5e8" stroke-width="10"/>
  <path d="M239 407v-44h18l15 24 15-24h18v44h-15v-22l-13 20h-11l-12-20v22z" fill="#071827" transform="translate(-17)"/>
</svg>
